<svg width="184" height="59" viewBox="0 0 184 59" fill="none" xmlns="http://www.w3.org/2000/svg">
<path d="M51.5742 0H6.94695C3.11026 0 0 3.13571 0 7.00381V51.9962C0 55.8643 3.11026 59 6.94695 59H51.5742C55.4109 59 58.5211 55.8643 58.5211 51.9962V7.00381C58.5211 3.13571 55.4109 0 51.5742 0Z" fill="url(#paint0_linear_173_1536)"/>
<path fill-rule="evenodd" clip-rule="evenodd" d="M35.5192 31.3993C36.7449 30.156 38.1592 29.2206 39.977 29.5971C40.7498 29.7773 41.4793 30.1107 42.123 30.578C46.0792 33.3043 52.468 37.9278 52.566 38.0001C50.9613 34.1384 49.1651 30.3605 47.1842 26.6807C42.2512 18.8442 35.5984 31.251 35.5192 31.3993Z" fill="url(#paint1_linear_173_1536)"/>
<path fill-rule="evenodd" clip-rule="evenodd" d="M29.485 28.9163C30.238 28.4971 30.91 27.9445 31.4688 27.2852C31.6686 27.0608 31.8459 26.8251 32.0533 26.5779C36.2019 21.2243 38.7212 11.4639 47.1579 26.711C42.2248 18.8745 35.5721 31.2737 35.4929 31.4296C33.7127 33.2357 32.34 35.6844 30.756 35.6844C28.6176 35.6844 24.0655 31.8821 20.196 30.0874C24.4803 31.1825 27.5389 30.1483 29.485 28.9163Z" fill="url(#paint2_linear_173_1536)"/>
<path fill-rule="evenodd" clip-rule="evenodd" d="M6.40387 37.2016C9.22489 36.3993 13.1924 29.4526 16.5867 29.137C17.6314 29.0419 18.891 29.4297 20.2337 30.0571C24.4803 31.1978 27.5389 30.1484 29.485 28.9164C28.2517 29.5552 26.845 29.597 25.1139 28.6123C23.8365 27.8166 22.6911 26.8235 21.7196 25.6693C15.18 19.7035 9.14569 32.3233 6.40387 37.2016Z" fill="url(#paint3_linear_173_1536)"/>
<path fill-rule="evenodd" clip-rule="evenodd" d="M89.3034 27.156C89.3174 25.7158 89.0242 24.2894 88.4436 22.9735C87.8924 21.7056 87.1007 20.5586 86.1128 19.5971C85.1134 18.6201 83.9418 17.8399 82.6582 17.2967C81.322 16.7279 79.8846 16.4406 78.4342 16.4526C75.587 16.4513 72.854 17.581 70.8273 19.5971C69.8394 20.5586 69.0476 21.7056 68.4965 22.9735C67.9293 24.2884 67.6366 25.7069 67.6366 27.1408C67.6366 28.5747 67.9293 29.9932 68.4965 31.3081C69.6188 33.8841 71.6808 35.9262 74.2555 37.0115C75.5758 37.5802 76.9985 37.8676 78.4342 37.8556C79.8846 37.8676 81.322 37.5803 82.6582 37.0115C83.9397 36.4728 85.111 35.6993 86.1128 34.7301C87.1054 33.7551 87.8974 32.5922 88.4436 31.3081L89.3034 27.1256V27.156ZM93.0334 39.5628C93.0532 39.8341 93.01 40.1063 92.9072 40.3578C92.8044 40.6092 92.6449 40.8331 92.4413 41.0115C92.0837 41.3204 91.6298 41.4927 91.159 41.4982C90.6939 41.4981 90.2453 41.3248 89.8993 41.0115C89.6946 40.8339 89.534 40.6102 89.4305 40.3586C89.327 40.107 89.2835 39.8345 89.3034 39.5628V36.7606C87.9346 38.2216 86.2944 39.3972 84.476 40.2206C82.5801 41.0822 80.5212 41.5181 78.4418 41.4982C77.1368 41.5036 75.8377 41.3218 74.5836 40.9583C73.3729 40.6316 72.2111 40.1432 71.129 39.5058C70.0495 38.9 69.0593 38.1449 68.1873 37.2625C67.302 36.407 66.5402 35.4304 65.9244 34.3613C65.2924 33.2971 64.8041 32.1527 64.4724 30.9583C64.1038 29.7252 63.9182 28.4439 63.9218 27.156C63.9093 25.2368 64.3054 23.3373 65.0834 21.5857C65.8136 19.8718 66.8737 18.321 68.2024 17.0229C70.9358 14.3186 74.6197 12.815 78.4493 12.8404C79.7532 12.8422 81.0514 13.0147 82.3112 13.3537C83.5306 13.6952 84.7055 14.1815 85.8111 14.8024C86.8817 15.4131 87.8714 16.1579 88.7566 17.0191C89.6324 17.8938 90.4021 18.8702 91.0496 19.9279C91.6852 21.0017 92.1857 22.1513 92.5393 23.3499C92.8727 24.5892 93.0389 25.8681 93.0334 27.1522V39.5628Z" fill="#102A63"/>
<path fill-rule="evenodd" clip-rule="evenodd" d="M121.949 27.156C121.962 25.7163 121.67 24.2903 121.093 22.9735C120.539 21.7062 119.746 20.5594 118.758 19.5971C117.759 18.6201 116.587 17.8399 115.304 17.2967C113.967 16.7279 112.53 16.4406 111.08 16.4526C108.232 16.4513 105.499 17.581 103.473 19.5971C102.487 20.5606 101.696 21.7071 101.142 22.9735C100.575 24.2884 100.282 25.7069 100.282 27.1408C100.282 28.5747 100.575 29.9932 101.142 31.3081C102.264 33.8841 104.326 35.9262 106.901 37.0115C108.221 37.5798 109.644 37.8672 111.08 37.8556C112.53 37.8676 113.967 37.5803 115.304 37.0115C116.585 36.4728 117.756 35.6993 118.758 34.7301C119.751 33.7543 120.544 32.5917 121.093 31.3081L121.949 27.1256V27.156ZM125.679 27.156C125.692 29.0753 125.3 30.9754 124.528 32.7301C123.786 34.4352 122.721 35.9784 121.394 37.2739C120.057 38.5893 118.484 39.637 116.759 40.3613C114.963 41.1265 113.03 41.5146 111.08 41.502C109.054 41.4959 107.05 41.0713 105.193 40.2545C103.336 39.4377 101.665 38.246 100.282 36.753V51.9165C100.3 52.1921 100.256 52.4682 100.154 52.7243C100.051 52.9805 99.8928 53.2099 99.6899 53.3955C99.3331 53.7056 98.8787 53.878 98.4076 53.8822C97.9426 53.8822 97.494 53.7088 97.148 53.3955C96.9447 53.2101 96.7855 52.9808 96.6823 52.7247C96.5791 52.4686 96.5346 52.1923 96.5521 51.9165V27.156C96.5396 25.2368 96.9357 23.3373 97.7137 21.5857C98.4439 19.8718 99.504 18.321 100.833 17.0229C103.566 14.3186 107.25 12.815 111.08 12.8404C112.388 12.8384 113.692 13.0084 114.957 13.3461C116.177 13.6836 117.353 14.1701 118.457 14.7948C119.527 15.4055 120.517 16.1503 121.402 17.0115C122.275 17.8837 123.043 18.8576 123.687 19.9127C124.317 20.9885 124.815 22.1377 125.17 23.3347L125.679 27.156Z" fill="#102A63"/>
<path fill-rule="evenodd" clip-rule="evenodd" d="M158.418 27.4182C158.415 27.645 158.362 27.8683 158.264 28.0722C158.158 28.2903 158.012 28.4863 157.834 28.6501C157.659 28.8196 157.457 28.9596 157.238 29.0646C157.022 29.1719 156.785 29.2278 156.544 29.2281H133.086C133.344 30.4819 133.824 31.6785 134.504 32.7604C135.146 33.8429 135.983 34.7957 136.97 35.5703C138.947 37.2039 141.425 38.0949 143.981 38.0912C144.742 38.0912 145.5 38.0135 146.244 37.8593C146.97 37.7146 147.68 37.4994 148.364 37.2167C149.756 36.6402 151.014 35.7793 152.06 34.6882C152.248 34.4595 152.485 34.2774 152.754 34.1558C152.986 34.0749 153.229 34.0326 153.474 34.0304C153.963 34.0253 154.435 34.2121 154.79 34.5513C154.962 34.7141 155.097 34.9111 155.189 35.1297C155.281 35.3484 155.326 35.5839 155.322 35.8212C155.294 36.3406 155.087 36.8339 154.738 37.2167C154.051 37.9282 153.293 38.5654 152.475 39.1178C151.639 39.682 150.756 40.1706 149.835 40.5779C148.941 40.9701 148.006 41.2572 147.048 41.4334C146.039 41.6152 145.017 41.7056 143.993 41.7034C142.671 41.7061 141.355 41.5244 140.082 41.1634C138.858 40.8182 137.681 40.3213 136.578 39.6844C135.47 39.0726 134.454 38.3044 133.561 37.403C132.658 36.5286 131.876 35.5347 131.238 34.4486C130.585 33.3704 130.078 32.2094 129.729 30.9961C129.367 29.7437 129.186 28.4452 129.19 27.1406C129.178 25.192 129.57 23.2624 130.34 21.4752C131.068 19.7449 132.124 18.1744 133.448 16.8517C134.777 15.5144 136.351 14.4503 138.083 13.7186C139.894 12.9551 141.837 12.5598 143.8 12.5552C145.763 12.5506 147.707 12.937 149.522 13.692C152.987 15.197 155.76 17.9679 157.283 21.4486C158.03 23.1636 158.416 25.0165 158.415 26.8897V27.3954L158.418 27.4182ZM154.598 25.6045C154.433 24.421 154.081 23.2719 153.553 22.2015C153.034 21.1534 152.349 20.1979 151.524 19.3726C150.521 18.4005 149.35 17.621 148.07 17.0722C146.726 16.519 145.286 16.2411 143.834 16.2547C141.206 16.243 138.661 17.1881 136.669 18.9163C134.699 20.6294 133.413 23.0043 133.048 25.6007L154.598 25.6045Z" fill="#102A63"/>
<path fill-rule="evenodd" clip-rule="evenodd" d="M183.008 39.8479C183.011 40.0798 182.962 40.3093 182.865 40.5198C182.769 40.7303 182.627 40.9164 182.45 41.0646C182.171 41.309 181.829 41.4693 181.463 41.5271C181.098 41.5849 180.723 41.538 180.383 41.3916C180.08 41.2554 179.814 41.0481 179.606 40.7871L170.985 29.7871L162.341 40.7871C162.154 41.047 161.905 41.255 161.617 41.3916C161.355 41.4975 161.076 41.5517 160.794 41.5513C160.318 41.5623 159.857 41.388 159.505 41.0646C159.327 40.9168 159.184 40.731 159.086 40.5205C158.988 40.3101 158.938 40.0803 158.939 39.8479C158.968 39.3849 159.136 38.9419 159.422 38.5779L168.639 26.7909L159.965 15.7452C159.673 15.4001 159.503 14.9666 159.482 14.5133C159.479 14.2689 159.528 14.0267 159.625 13.8031C159.723 13.5794 159.867 13.3794 160.048 13.2167C160.409 12.8957 160.875 12.7222 161.356 12.73C161.632 12.7315 161.904 12.7857 162.16 12.8897C162.451 13.0338 162.7 13.2512 162.884 13.5209L171 23.7871L179.063 13.5209C179.259 13.2513 179.519 13.0345 179.817 12.8897C180.161 12.743 180.538 12.6959 180.906 12.7537C181.275 12.8115 181.62 12.9718 181.903 13.2167C182.084 13.3794 182.228 13.5794 182.326 13.8031C182.423 14.0267 182.472 14.2689 182.469 14.5133C182.448 14.9666 182.278 15.4001 181.986 15.7452L173.312 26.7909L182.574 38.5779C182.74 38.7758 182.868 39.0026 182.952 39.2471L183.008 39.8479Z" fill="#102A63"/>
<path fill-rule="evenodd" clip-rule="evenodd" d="M162.318 40.9048C162.132 41.1677 161.881 41.3773 161.59 41.5132C161.328 41.6216 161.048 41.6772 160.764 41.6767C160.285 41.6878 159.82 41.5121 159.467 41.1862C159.288 41.0376 159.144 40.8506 159.045 40.6388C158.947 40.427 158.896 40.1958 158.897 39.9619C158.926 39.4958 159.096 39.0499 159.384 38.6843L168.654 26.8212L159.927 15.6957C159.629 15.349 159.456 14.9107 159.437 14.4524C159.434 14.2062 159.484 13.9624 159.582 13.7373C159.681 13.5123 159.827 13.3113 160.01 13.1482C160.372 12.8256 160.84 12.6507 161.322 12.6577C161.601 12.6587 161.876 12.7142 162.133 12.8212C162.426 12.9658 162.677 13.1846 162.861 13.4562C175.876 29.9429 163.408 14.1178 173.342 26.8212L162.318 40.9048Z" fill="url(#paint4_linear_173_1536)"/>
<path fill-rule="evenodd" clip-rule="evenodd" d="M108.021 50.635C108.023 50.3865 107.973 50.1403 107.874 49.9126C107.787 49.6948 107.659 49.496 107.497 49.3271C107.327 49.1601 107.129 49.0249 106.912 48.9278C106.685 48.8316 106.442 48.7824 106.196 48.7833C105.953 48.7824 105.713 48.8315 105.49 48.9278C105.273 49.0212 105.075 49.1569 104.91 49.3271C104.738 49.4985 104.602 49.7025 104.509 49.9274C104.416 50.1522 104.368 50.3934 104.368 50.6369C104.368 50.8805 104.416 51.1217 104.509 51.3465C104.602 51.5713 104.738 51.7754 104.91 51.9468C105.076 52.1116 105.273 52.241 105.49 52.3271C105.712 52.4264 105.953 52.4769 106.196 52.4753C106.442 52.4769 106.686 52.4264 106.912 52.3271C107.128 52.2373 107.326 52.1084 107.497 51.9468C107.659 51.7765 107.787 51.5764 107.874 51.3575L108.021 50.635ZM108.651 50.635C108.646 51.122 108.501 51.5971 108.233 52.0022C107.966 52.4074 107.586 52.7251 107.142 52.9164C106.84 53.0495 106.514 53.1169 106.184 53.1141C105.962 53.1156 105.741 53.0836 105.528 53.0191C105.323 52.9632 105.126 52.8787 104.944 52.7681C104.579 52.5525 104.275 52.2461 104.061 51.8784C103.952 51.6952 103.867 51.4983 103.808 51.2928C103.745 51.0795 103.713 50.8578 103.714 50.635V46.3499C103.71 46.3029 103.717 46.2556 103.735 46.212C103.753 46.1683 103.78 46.1296 103.816 46.0989C103.872 46.043 103.948 46.0116 104.027 46.0115C104.108 46.0131 104.186 46.0441 104.246 46.0989C104.28 46.1305 104.307 46.1695 104.324 46.213C104.341 46.2565 104.347 46.3033 104.344 46.3499V48.9696C104.569 48.714 104.845 48.5093 105.155 48.3689C105.474 48.2204 105.822 48.145 106.173 48.1484C106.394 48.1537 106.613 48.1882 106.825 48.251C107.032 48.3101 107.231 48.3943 107.418 48.502C107.599 48.6065 107.766 48.7344 107.915 48.8822C108.061 49.0336 108.187 49.2021 108.293 49.3841C108.4 49.5721 108.485 49.7725 108.545 49.9811L108.651 50.635Z" fill="url(#paint5_linear_173_1536)"/>
<path fill-rule="evenodd" clip-rule="evenodd" d="M143.276 48.4639C143.275 48.5439 143.246 48.6209 143.193 48.6807C143.163 48.7165 143.124 48.7445 143.081 48.7624C143.038 48.7802 142.991 48.7874 142.944 48.7833H141.402V50.9735C141.407 51.3716 141.564 51.7526 141.839 52.0381C141.978 52.1755 142.14 52.2863 142.318 52.3651C142.504 52.4496 142.706 52.4924 142.91 52.4906C142.956 52.487 143.002 52.4937 143.045 52.5101C143.088 52.5265 143.127 52.5523 143.159 52.5856C143.212 52.6444 143.242 52.721 143.242 52.8004C143.242 52.8799 143.212 52.9565 143.159 53.0153C143.128 53.0504 143.09 53.0779 143.047 53.0957C143.004 53.1135 142.957 53.1211 142.91 53.1179C142.624 53.1202 142.34 53.0633 142.077 52.9506C141.569 52.7304 141.164 52.3221 140.945 51.8099C140.831 51.5475 140.774 51.2638 140.776 50.9773V46.3499C140.772 46.3029 140.779 46.2556 140.797 46.212C140.814 46.1683 140.842 46.1296 140.878 46.0989C140.934 46.0437 141.01 46.0124 141.089 46.0115C141.17 46.0131 141.247 46.0441 141.308 46.0989C141.342 46.1305 141.368 46.1695 141.385 46.213C141.402 46.2565 141.409 46.3033 141.406 46.3499V48.1484H142.948C142.994 48.1443 143.04 48.1504 143.083 48.1661C143.126 48.1819 143.165 48.207 143.197 48.2396L143.276 48.4639Z" fill="url(#paint6_linear_173_1536)"/>
<path fill-rule="evenodd" clip-rule="evenodd" d="M160.5 48.4639C160.5 48.5439 160.47 48.6209 160.417 48.6806C160.387 48.7165 160.349 48.7445 160.305 48.7623C160.262 48.7802 160.215 48.7873 160.168 48.7833H158.626V52.8137C158.63 52.8615 158.623 52.9095 158.606 52.9542C158.589 52.999 158.562 53.0393 158.528 53.0723C158.467 53.1246 158.389 53.1541 158.309 53.1559C158.231 53.1546 158.156 53.1249 158.098 53.0723C158.062 53.0402 158.034 53.0001 158.016 52.9552C157.999 52.9103 157.992 52.8618 157.996 52.8137V48.2129C157.994 47.9264 158.052 47.6427 158.166 47.3802C158.274 47.125 158.427 46.8918 158.618 46.692C158.816 46.4927 159.052 46.3349 159.311 46.2278C159.57 46.1208 159.847 46.0666 160.127 46.0685C160.173 46.0646 160.219 46.0712 160.262 46.0876C160.305 46.104 160.344 46.13 160.376 46.1635C160.427 46.2228 160.456 46.298 160.459 46.3764C160.456 46.456 160.427 46.5324 160.376 46.5932C160.345 46.6285 160.307 46.6562 160.263 46.674C160.22 46.6918 160.173 46.6993 160.127 46.6958C159.924 46.6933 159.722 46.7335 159.535 46.8137C159.357 46.8939 159.194 47.006 159.056 47.1445C158.925 47.2767 158.82 47.4328 158.747 47.6046C158.667 47.7843 158.623 47.9781 158.618 48.1749H160.161C160.206 48.1709 160.252 48.1769 160.295 48.1927C160.338 48.2085 160.377 48.2335 160.41 48.2662L160.5 48.4639Z" fill="url(#paint7_linear_173_1536)"/>
<path fill-rule="evenodd" clip-rule="evenodd" d="M114.078 50.9735C114.081 51.2622 114.025 51.5484 113.912 51.8138C113.799 52.0692 113.642 52.3023 113.448 52.502C113.251 52.6974 113.02 52.8536 112.765 52.9621C112.502 53.0774 112.219 53.137 111.932 53.137C111.645 53.137 111.361 53.0774 111.098 52.9621C110.843 52.8545 110.61 52.6983 110.412 52.502C110.216 52.3052 110.059 52.0714 109.952 51.8138C109.835 51.5495 109.776 51.2629 109.779 50.9735V48.4906C109.774 48.4436 109.782 48.3964 109.799 48.3527C109.817 48.3091 109.845 48.2703 109.88 48.2397C109.939 48.1852 110.016 48.1553 110.095 48.156C110.175 48.1568 110.251 48.1865 110.31 48.2397C110.346 48.2703 110.374 48.3091 110.391 48.3527C110.409 48.3964 110.416 48.4436 110.412 48.4906V50.9735C110.41 51.1772 110.45 51.3791 110.529 51.5667C110.606 51.7499 110.718 51.9164 110.857 52.0572C110.995 52.1975 111.159 52.3086 111.34 52.3842C111.526 52.4669 111.728 52.5096 111.932 52.5096C112.136 52.5096 112.337 52.4669 112.524 52.3842C112.703 52.3067 112.865 52.1957 113.003 52.0572C113.14 51.9144 113.251 51.7484 113.331 51.5667C113.41 51.3791 113.45 51.1772 113.448 50.9735V48.4906C113.444 48.444 113.451 48.3972 113.468 48.3537C113.485 48.3103 113.512 48.2713 113.546 48.2397C113.607 48.1859 113.684 48.1562 113.765 48.156C113.844 48.1561 113.921 48.1859 113.98 48.2397C114.015 48.2707 114.042 48.3096 114.059 48.3533C114.076 48.3969 114.082 48.444 114.078 48.4906V50.9735Z" fill="url(#paint8_linear_173_1536)"/>
<path fill-rule="evenodd" clip-rule="evenodd" d="M116.001 52.8137C116.006 52.8615 116 52.9098 115.983 52.9547C115.966 52.9996 115.938 53.0398 115.903 53.0722C115.844 53.1262 115.766 53.1561 115.686 53.1561C115.606 53.1561 115.529 53.1262 115.47 53.0722C115.434 53.0398 115.407 52.9996 115.39 52.9547C115.373 52.9098 115.367 52.8615 115.371 52.8137V48.4677C115.367 48.4205 115.374 48.3729 115.391 48.3287C115.408 48.2845 115.435 48.2449 115.47 48.2129C115.528 48.1564 115.606 48.1249 115.686 48.1249C115.767 48.1249 115.845 48.1564 115.903 48.2129C115.938 48.2449 115.965 48.2845 115.982 48.3287C115.999 48.3729 116.005 48.4205 116.001 48.4677V52.8137ZM116.167 47.0114C116.167 47.0726 116.156 47.1332 116.133 47.1901C116.109 47.2489 116.073 47.302 116.028 47.346C115.985 47.3903 115.934 47.4253 115.877 47.4487C115.816 47.476 115.751 47.4902 115.684 47.4905C115.619 47.4901 115.555 47.4759 115.496 47.4487C115.438 47.4274 115.386 47.3921 115.345 47.346C115.301 47.3019 115.266 47.2487 115.243 47.1901C115.217 47.1343 115.203 47.0733 115.202 47.0114C115.202 46.9458 115.216 46.881 115.243 46.8213C115.291 46.7025 115.381 46.6061 115.496 46.5513C115.556 46.5283 115.62 46.5167 115.684 46.5171C115.75 46.5167 115.815 46.5283 115.877 46.5513C115.932 46.5802 115.983 46.6174 116.028 46.6616C116.073 46.7076 116.108 46.7618 116.133 46.8213L116.167 47.0114Z" fill="url(#paint9_linear_173_1536)"/>
<path fill-rule="evenodd" clip-rule="evenodd" d="M117.925 52.8138C117.929 52.8615 117.922 52.9095 117.905 52.9543C117.888 52.9991 117.861 53.0394 117.827 53.0723C117.765 53.1246 117.688 53.1541 117.608 53.156C117.53 53.1553 117.454 53.1255 117.397 53.0723C117.361 53.0403 117.333 53.0002 117.315 52.9553C117.298 52.9104 117.291 52.8619 117.295 52.8138V46.3499C117.291 46.3029 117.298 46.2556 117.316 46.212C117.333 46.1683 117.361 46.1296 117.397 46.0989C117.453 46.043 117.529 46.0116 117.608 46.0115C117.689 46.0131 117.767 46.0441 117.827 46.0989C117.861 46.1305 117.887 46.1695 117.904 46.213C117.921 46.2565 117.928 46.3033 117.925 46.3499V52.8138Z" fill="url(#paint10_linear_173_1536)"/>
<path fill-rule="evenodd" clip-rule="evenodd" d="M123.348 50.635C123.351 50.3867 123.302 50.1406 123.205 49.9126C123.112 49.6934 122.977 49.4945 122.809 49.3271C122.64 49.1593 122.441 49.024 122.224 48.9278C121.997 48.8312 121.754 48.782 121.508 48.7833C121.265 48.7824 121.025 48.8315 120.802 48.9278C120.585 49.0212 120.387 49.1569 120.221 49.3271C120.061 49.4971 119.933 49.6956 119.844 49.9126C119.747 50.1406 119.698 50.3867 119.701 50.635C119.699 50.8833 119.747 51.1293 119.844 51.3575C119.933 51.5756 120.061 51.7754 120.221 51.9468C120.388 52.1116 120.585 52.241 120.802 52.3271C121.024 52.4264 121.265 52.4769 121.508 52.4753C121.754 52.4773 121.998 52.4267 122.224 52.3271C122.441 52.238 122.639 52.109 122.809 51.9468C122.977 51.778 123.112 51.5779 123.205 51.3575L123.348 50.635ZM123.982 50.635C123.982 50.9608 123.918 51.2833 123.793 51.5836C123.668 51.884 123.484 52.1561 123.254 52.3841C123.031 52.6125 122.766 52.7947 122.473 52.9202C122.17 53.053 121.842 53.1203 121.511 53.1179C121.29 53.1194 121.07 53.0874 120.859 53.0229C120.653 52.9677 120.456 52.8832 120.274 52.7719C120.091 52.6682 119.922 52.5404 119.773 52.3917C119.625 52.2428 119.498 52.0739 119.396 51.8898C119.289 51.7047 119.207 51.5066 119.15 51.3004C119.089 51.0867 119.057 50.8653 119.056 50.6427C119.055 50.3106 119.122 49.9818 119.252 49.6769C119.376 49.3812 119.555 49.1126 119.78 48.886C120.005 48.6611 120.27 48.4806 120.561 48.3537C120.863 48.2269 121.188 48.1623 121.515 48.1636C121.869 48.1594 122.219 48.2347 122.541 48.3841C122.851 48.5254 123.128 48.73 123.356 48.9849V46.3499C123.352 46.3029 123.359 46.2556 123.376 46.212C123.394 46.1683 123.422 46.1296 123.457 46.0989C123.516 46.0438 123.592 46.0126 123.672 46.0115C123.752 46.0129 123.829 46.0441 123.887 46.0989C123.923 46.1296 123.951 46.1683 123.968 46.212C123.986 46.2556 123.993 46.3029 123.989 46.3499L123.982 50.635Z" fill="url(#paint11_linear_173_1536)"/>
<path fill-rule="evenodd" clip-rule="evenodd" d="M125.905 52.8137C125.91 52.8615 125.904 52.9098 125.887 52.9547C125.869 52.9996 125.842 53.0398 125.807 53.0722C125.747 53.1248 125.671 53.1544 125.592 53.1559C125.512 53.1541 125.435 53.1245 125.373 53.0722C125.339 53.0393 125.312 52.999 125.295 52.9542C125.278 52.9095 125.271 52.8614 125.275 52.8137V48.4677C125.272 48.4205 125.279 48.3732 125.296 48.3292C125.313 48.2851 125.339 48.2454 125.373 48.2129C125.433 48.1581 125.511 48.127 125.592 48.1255C125.672 48.1266 125.749 48.1578 125.807 48.2129C125.842 48.2449 125.869 48.2845 125.886 48.3287C125.903 48.3729 125.909 48.4205 125.905 48.4677V52.8137ZM126.075 47.0114C126.074 47.0728 126.061 47.1335 126.037 47.1901C126.013 47.2489 125.977 47.302 125.932 47.346C125.889 47.3912 125.838 47.4262 125.781 47.4487C125.72 47.476 125.655 47.4902 125.588 47.4905C125.524 47.4902 125.461 47.4759 125.404 47.4487C125.344 47.4279 125.291 47.3926 125.249 47.346C125.206 47.3009 125.171 47.248 125.147 47.1901C125.122 47.1341 125.109 47.073 125.109 47.0114C125.108 46.946 125.121 46.8812 125.147 46.8213C125.172 46.7627 125.206 46.7088 125.249 46.6616C125.293 46.6156 125.346 46.5782 125.404 46.5513C125.462 46.5283 125.525 46.5167 125.588 46.5171C125.654 46.5167 125.719 46.5283 125.781 46.5513C125.837 46.5792 125.888 46.6165 125.932 46.6616C125.976 46.7076 126.012 46.7618 126.037 46.8213L126.075 47.0114Z" fill="url(#paint12_linear_173_1536)"/>
<path fill-rule="evenodd" clip-rule="evenodd" d="M131.498 52.8137C131.503 52.8615 131.497 52.9098 131.479 52.9547C131.462 52.9996 131.435 53.0398 131.4 53.0722C131.34 53.1262 131.263 53.156 131.183 53.156C131.103 53.156 131.026 53.1262 130.966 53.0722C130.931 53.0398 130.904 52.9996 130.887 52.9547C130.87 52.9098 130.863 52.8615 130.868 52.8137V50.3384C130.87 50.1367 130.832 49.9366 130.756 49.7499C130.68 49.5633 130.568 49.3936 130.427 49.2509C130.288 49.1124 130.126 49.0003 129.948 48.9201C129.761 48.841 129.559 48.8009 129.356 48.8022C129.153 48.8002 128.951 48.8403 128.764 48.9201C128.583 48.9984 128.42 49.1107 128.281 49.2509C128.141 49.3896 128.029 49.5551 127.953 49.7376C127.871 49.9271 127.83 50.1318 127.832 50.3384V52.8137C127.837 52.8618 127.83 52.9103 127.812 52.9552C127.794 53.0001 127.766 53.0402 127.73 53.0722C127.669 53.1245 127.592 53.154 127.512 53.1559C127.434 53.1539 127.359 53.1242 127.301 53.0722C127.263 53.0409 127.234 53.0012 127.215 52.9562C127.196 52.9113 127.188 52.8624 127.191 52.8137V50.3384C127.196 49.7671 127.423 49.2206 127.825 48.8175C128.023 48.6218 128.254 48.4634 128.507 48.3498C129.042 48.1269 129.643 48.1269 130.178 48.3498C130.431 48.4634 130.663 48.6218 130.861 48.8175C131.056 49.0151 131.213 49.2471 131.325 49.5019C131.435 49.7694 131.491 50.0563 131.491 50.346L131.498 52.8137Z" fill="url(#paint13_linear_173_1536)"/>
<path fill-rule="evenodd" clip-rule="evenodd" d="M136.921 50.6349C136.925 50.3866 136.876 50.1404 136.778 49.9125C136.684 49.694 136.549 49.4954 136.382 49.3269C136.213 49.1592 136.015 49.0239 135.798 48.9277C135.571 48.831 135.327 48.7819 135.081 48.7832C134.839 48.7822 134.598 48.8314 134.376 48.9277C134.158 49.0211 133.961 49.1567 133.795 49.3269C133.628 49.4954 133.493 49.694 133.399 49.9125C133.301 50.1404 133.252 50.3866 133.256 50.6349C133.253 50.8831 133.302 51.1292 133.399 51.3574C133.493 51.577 133.628 51.7769 133.795 51.9467C133.961 52.1115 134.159 52.2408 134.376 52.3269C134.598 52.4262 134.838 52.4768 135.081 52.4752C135.327 52.4771 135.572 52.4266 135.798 52.3269C136.014 52.2378 136.212 52.1089 136.382 51.9467C136.549 51.7769 136.684 51.577 136.778 51.3574L136.921 50.6349ZM137.555 52.7224C137.557 53.061 137.488 53.3963 137.355 53.7072C137.227 54.0072 137.042 54.2796 136.812 54.5094C136.581 54.743 136.309 54.9301 136.009 55.0608C135.699 55.1949 135.365 55.2635 135.028 55.2623C134.706 55.2615 134.387 55.1983 134.089 55.076C133.942 55.0154 133.801 54.9416 133.667 54.8554C133.532 54.771 133.406 54.6743 133.29 54.5665C133.255 54.5345 133.227 54.4958 133.207 54.4527C133.188 54.4096 133.177 54.3629 133.176 54.3155C133.175 54.2756 133.181 54.2358 133.196 54.1985C133.21 54.1612 133.232 54.1273 133.259 54.0988C133.288 54.0691 133.322 54.0457 133.359 54.03C133.397 54.0143 133.437 54.0067 133.478 54.0075C133.518 54.0085 133.558 54.0162 133.595 54.0304C133.64 54.0494 133.682 54.075 133.719 54.1064C133.891 54.2754 134.097 54.405 134.323 54.4866C134.432 54.5294 134.544 54.5637 134.659 54.5893C134.783 54.61 134.909 54.6202 135.036 54.6197C135.295 54.6246 135.552 54.5727 135.79 54.4676C136.015 54.3696 136.22 54.2289 136.393 54.0532C136.566 53.8787 136.705 53.6738 136.804 53.4486C136.902 53.2139 136.952 52.9617 136.952 52.7072V52.2813C136.721 52.5331 136.443 52.736 136.133 52.8783C135.813 53.0284 135.464 53.105 135.111 53.1026C134.89 53.1044 134.67 53.0723 134.459 53.0075C134.252 52.9524 134.054 52.8679 133.87 52.7566C133.689 52.6519 133.522 52.5241 133.372 52.3764C133.224 52.2274 133.097 52.0585 132.995 51.8745C132.889 51.6893 132.807 51.4913 132.75 51.2851C132.687 51.0717 132.655 50.8501 132.656 50.6273C132.653 50.2951 132.72 49.966 132.852 49.6615C132.976 49.3659 133.155 49.0973 133.38 48.8707C133.605 48.6458 133.87 48.4652 134.161 48.3383C134.463 48.2113 134.787 48.1466 135.115 48.1482C135.336 48.1482 135.557 48.1776 135.771 48.2357C135.979 48.2949 136.179 48.3791 136.367 48.4866C136.548 48.5912 136.716 48.719 136.865 48.8669C137.01 49.0183 137.137 49.1868 137.242 49.3688C137.468 49.747 137.585 50.1818 137.578 50.6235L137.555 52.7224Z" fill="url(#paint14_linear_173_1536)"/>
<path fill-rule="evenodd" clip-rule="evenodd" d="M148.688 52.8138C148.693 52.8616 148.687 52.9099 148.67 52.9548C148.653 52.9997 148.625 53.0399 148.59 53.0723C148.53 53.1243 148.454 53.1539 148.375 53.156C148.295 53.1541 148.218 53.1246 148.156 53.0723C148.122 53.0394 148.095 52.9991 148.078 52.9543C148.061 52.9095 148.054 52.8615 148.058 52.8138V50.3385C148.06 50.1368 148.022 49.9367 147.946 49.7501C147.87 49.5634 147.759 49.3937 147.617 49.251C147.479 49.1125 147.316 49.0004 147.138 48.9202C146.951 48.8411 146.749 48.801 146.546 48.8023C146.344 48.8003 146.144 48.8404 145.958 48.9202C145.776 48.9973 145.61 49.1097 145.471 49.251C145.331 49.3897 145.219 49.5552 145.143 49.7377C145.062 49.9272 145.02 50.1319 145.022 50.3385V52.8138C145.027 52.8619 145.02 52.9104 145.002 52.9553C144.984 53.0002 144.956 53.0403 144.921 53.0723C144.86 53.1238 144.785 53.1533 144.706 53.156C144.626 53.1545 144.55 53.1249 144.491 53.0723C144.455 53.0403 144.427 53.0002 144.409 52.9553C144.391 52.9104 144.384 52.8619 144.389 52.8138V46.3499C144.385 46.3029 144.392 46.2556 144.41 46.212C144.427 46.1683 144.455 46.1296 144.491 46.0989C144.549 46.0438 144.626 46.0126 144.706 46.0115C144.785 46.0136 144.862 46.0447 144.921 46.0989C144.956 46.1296 144.984 46.1683 145.002 46.212C145.019 46.2556 145.026 46.3029 145.022 46.3499V48.7833C145.221 48.5789 145.458 48.4172 145.72 48.3081C146.253 48.0901 146.85 48.0901 147.383 48.3081C147.888 48.5337 148.291 48.9402 148.515 49.4487C148.627 49.7157 148.683 50.003 148.681 50.2928L148.688 52.8138Z" fill="url(#paint15_linear_173_1536)"/>
<path fill-rule="evenodd" clip-rule="evenodd" d="M154.775 50.6768C154.775 50.7162 154.766 50.7551 154.749 50.7908C154.73 50.8285 154.706 50.8631 154.677 50.8935C154.647 50.921 154.612 50.944 154.575 50.9619C154.539 50.9813 154.499 50.9917 154.459 50.9923H150.487C150.531 51.2088 150.611 51.4159 150.725 51.6045C150.834 51.7908 150.976 51.9557 151.143 52.0912C151.307 52.2279 151.491 52.3359 151.69 52.4106C152.018 52.5354 152.374 52.5618 152.716 52.4866C152.839 52.462 152.959 52.425 153.074 52.3764C153.311 52.2764 153.524 52.1275 153.7 51.9391C153.733 51.8998 153.772 51.8675 153.817 51.8441C153.858 51.8322 153.9 51.8258 153.942 51.825C154.025 51.8234 154.105 51.8548 154.164 51.9125C154.193 51.9412 154.216 51.9755 154.232 52.0134C154.248 52.0513 154.255 52.092 154.255 52.133C154.251 52.2238 154.215 52.3101 154.153 52.3764C154.039 52.5 153.913 52.6109 153.776 52.7072C153.635 52.8055 153.485 52.8895 153.327 52.9581C153.177 53.0269 153.018 53.0767 152.856 53.1064C152.686 53.1403 152.512 53.1569 152.339 53.1558C152.114 53.1571 151.891 53.125 151.675 53.0608C151.468 53.0003 151.27 52.9148 151.083 52.806C150.896 52.7043 150.725 52.5763 150.574 52.4258C150.426 52.274 150.299 52.1026 150.197 51.9163C150.088 51.7288 150.003 51.5282 149.944 51.3193C149.882 51.1017 149.85 50.8765 149.85 50.6501C149.851 49.9832 150.111 49.3432 150.574 48.8669C150.798 48.6359 151.064 48.4512 151.358 48.3231C151.664 48.1883 151.994 48.1197 152.328 48.1216C152.66 48.1199 152.988 48.1872 153.293 48.3193C153.584 48.45 153.847 48.6344 154.07 48.8631C154.299 49.0923 154.481 49.3649 154.606 49.6653C154.734 49.9616 154.799 50.2814 154.798 50.6045V50.692L154.775 50.6768ZM154.127 50.365C154.077 49.9576 153.895 49.5782 153.61 49.2851C153.439 49.1181 153.24 48.9829 153.022 48.8859C152.795 48.7898 152.551 48.7419 152.305 48.7452C152.079 48.7444 151.856 48.7856 151.645 48.8669C151.442 48.9461 151.254 49.0607 151.091 49.2053C150.927 49.3508 150.79 49.5247 150.687 49.7186C150.578 49.919 150.508 50.1383 150.48 50.365H154.127Z" fill="url(#paint16_linear_173_1536)"/>
<path fill-rule="evenodd" clip-rule="evenodd" d="M165.927 50.9735C165.931 51.2622 165.874 51.5484 165.761 51.8138C165.649 52.0692 165.492 52.3023 165.298 52.502C165.101 52.6974 164.869 52.8536 164.615 52.9621C164.353 53.0796 164.068 53.1393 163.781 53.137C163.494 53.1401 163.21 53.0804 162.948 52.9621C162.692 52.8545 162.459 52.6983 162.262 52.502C162.065 52.3052 161.909 52.0714 161.801 51.8138C161.684 51.5495 161.625 51.2629 161.628 50.9735V48.4906C161.624 48.4436 161.631 48.3964 161.649 48.3527C161.666 48.3091 161.694 48.2703 161.73 48.2397C161.788 48.1852 161.865 48.1553 161.945 48.156C162.024 48.1568 162.1 48.1865 162.16 48.2397C162.195 48.2703 162.223 48.3091 162.241 48.3527C162.258 48.3964 162.266 48.4436 162.262 48.4906V50.9735C162.26 51.1772 162.3 51.3791 162.378 51.5667C162.456 51.7499 162.567 51.9164 162.707 52.0572C162.844 52.1975 163.008 52.3086 163.189 52.3842C163.376 52.4669 163.578 52.5096 163.781 52.5096C163.985 52.5096 164.187 52.4669 164.374 52.3842C164.552 52.3067 164.715 52.1957 164.853 52.0572C164.99 51.9144 165.101 51.7484 165.181 51.5667C165.26 51.3791 165.299 51.1772 165.298 50.9735V48.4906C165.294 48.444 165.301 48.3972 165.318 48.3537C165.335 48.3103 165.361 48.2713 165.396 48.2397C165.456 48.1859 165.534 48.1562 165.614 48.156C165.694 48.1561 165.77 48.1859 165.829 48.2397C165.864 48.2707 165.891 48.3096 165.908 48.3533C165.925 48.3969 165.932 48.444 165.927 48.4906V50.9735Z" fill="url(#paint17_linear_173_1536)"/>
<path fill-rule="evenodd" clip-rule="evenodd" d="M169.555 48.4639C169.554 48.5432 169.526 48.6197 169.476 48.6807C169.445 48.7158 169.407 48.7433 169.364 48.7611C169.32 48.7789 169.274 48.7865 169.227 48.7833H167.685V50.9735C167.685 51.3719 167.841 51.7542 168.119 52.0381C168.259 52.1755 168.422 52.2863 168.601 52.3651C168.786 52.4495 168.987 52.4923 169.19 52.4906C169.236 52.4862 169.282 52.4924 169.325 52.5089C169.368 52.5254 169.407 52.5516 169.439 52.5856C169.492 52.6444 169.521 52.721 169.521 52.8004C169.521 52.8799 169.492 52.9565 169.439 53.0153C169.408 53.0511 169.37 53.0791 169.326 53.097C169.283 53.1148 169.236 53.122 169.19 53.1179C168.903 53.1198 168.62 53.0629 168.356 52.9506C168.105 52.8419 167.877 52.6857 167.685 52.4906C167.489 52.2936 167.332 52.0614 167.221 51.8062C167.107 51.5437 167.049 51.26 167.051 50.9735V46.3499C167.047 46.3029 167.054 46.2556 167.072 46.212C167.09 46.1683 167.117 46.1296 167.153 46.0989C167.211 46.0438 167.288 46.0126 167.368 46.0115C167.448 46.0136 167.524 46.0447 167.583 46.0989C167.619 46.1296 167.646 46.1683 167.664 46.212C167.682 46.2556 167.689 46.3029 167.685 46.3499V48.1484H169.227C169.273 48.1451 169.319 48.1515 169.361 48.1672C169.404 48.1829 169.443 48.2076 169.476 48.2396L169.555 48.4639Z" fill="url(#paint18_linear_173_1536)"/>
<path fill-rule="evenodd" clip-rule="evenodd" d="M174.986 50.9735C174.988 51.2625 174.931 51.5487 174.817 51.8138C174.598 52.3258 174.193 52.7339 173.685 52.9545C173.421 53.0717 173.136 53.1313 172.848 53.1294C172.561 53.1316 172.277 53.072 172.014 52.9545C171.504 52.7379 171.098 52.3285 170.883 51.8138C170.769 51.5487 170.711 51.2625 170.713 50.9735V48.4906C170.71 48.444 170.717 48.3972 170.734 48.3537C170.751 48.3103 170.777 48.2713 170.811 48.2397C170.87 48.1852 170.947 48.1553 171.026 48.156C171.106 48.1561 171.182 48.1859 171.241 48.2397C171.277 48.2703 171.305 48.3091 171.322 48.3527C171.34 48.3964 171.347 48.4436 171.343 48.4906V50.9735C171.341 51.1772 171.381 51.3791 171.46 51.5667C171.537 51.7499 171.649 51.9164 171.788 52.0572C171.927 52.1984 172.092 52.3096 172.275 52.3842C172.461 52.4668 172.662 52.5095 172.865 52.5095C173.068 52.5095 173.269 52.4668 173.455 52.3842C173.634 52.3073 173.797 52.1963 173.934 52.0572C174.072 51.9154 174.184 51.7491 174.262 51.5667C174.341 51.3791 174.381 51.1772 174.379 50.9735V48.4906C174.375 48.4436 174.382 48.3964 174.4 48.3527C174.418 48.3091 174.445 48.2703 174.481 48.2397C174.54 48.186 174.616 48.1562 174.696 48.1562C174.775 48.1562 174.852 48.186 174.911 48.2397C174.946 48.2703 174.974 48.3091 174.992 48.3527C175.01 48.3964 175.017 48.4436 175.013 48.4906L174.986 50.9735Z" fill="url(#paint19_linear_173_1536)"/>
<path fill-rule="evenodd" clip-rule="evenodd" d="M178.596 48.4638C178.595 48.5438 178.565 48.6208 178.513 48.6806C178.482 48.7164 178.444 48.7444 178.4 48.7623C178.357 48.7801 178.31 48.7873 178.264 48.7832C178.061 48.781 177.861 48.8225 177.675 48.9049C177.493 48.9863 177.327 49.0996 177.185 49.2395C177.041 49.379 176.927 49.5469 176.851 49.7327C176.774 49.9185 176.737 50.1182 176.74 50.3194V52.8137C176.744 52.8618 176.737 52.9103 176.72 52.9552C176.702 53.0001 176.674 53.0402 176.638 53.0722C176.579 53.1259 176.503 53.1557 176.423 53.1557C176.344 53.1557 176.267 53.1259 176.208 53.0722C176.174 53.0393 176.147 52.999 176.13 52.9542C176.113 52.9094 176.106 52.8614 176.11 52.8137V50.3384C176.107 50.0484 176.163 49.7609 176.276 49.4943C176.503 48.981 176.914 48.5734 177.426 48.3536C177.691 48.2414 177.976 48.1844 178.264 48.1863C178.309 48.1822 178.355 48.1883 178.398 48.2041C178.441 48.2198 178.48 48.2449 178.513 48.2775L178.596 48.4638Z" fill="url(#paint20_linear_173_1536)"/>
<path fill-rule="evenodd" clip-rule="evenodd" d="M183.974 50.6769C183.973 50.7164 183.964 50.7553 183.947 50.791C183.929 50.8297 183.903 50.8645 183.872 50.8937C183.842 50.9211 183.809 50.9442 183.774 50.9621C183.736 50.981 183.695 50.9914 183.653 50.9925H179.682C179.726 51.2092 179.808 51.4164 179.923 51.6047C180.031 51.7919 180.173 51.9569 180.342 52.0914C180.558 52.2716 180.812 52.3995 181.084 52.4654C181.357 52.5313 181.641 52.5334 181.914 52.4716C182.037 52.4464 182.157 52.4095 182.273 52.3613C182.509 52.26 182.722 52.1112 182.899 51.9241C182.93 51.884 182.97 51.8515 183.016 51.829C183.055 51.8172 183.095 51.8108 183.136 51.81C183.177 51.8085 183.218 51.8153 183.256 51.8301C183.294 51.845 183.329 51.8675 183.358 51.8963C183.388 51.9251 183.411 51.9596 183.426 51.9977C183.442 52.0358 183.45 52.0768 183.449 52.118C183.446 52.2083 183.412 52.2945 183.351 52.3613C183.238 52.485 183.111 52.5959 182.974 52.6921C182.833 52.7897 182.682 52.8737 182.525 52.9431C182.375 53.0113 182.216 53.0611 182.054 53.0914C181.884 53.1253 181.711 53.1419 181.537 53.1408C181.313 53.1425 181.089 53.1105 180.873 53.0457C180.667 52.9853 180.468 52.8997 180.281 52.791C180.095 52.6893 179.923 52.5612 179.772 52.4108C179.624 52.2588 179.497 52.0874 179.395 51.9013C179.286 51.7138 179.201 51.5132 179.142 51.3043C178.993 50.7579 179.03 50.1766 179.248 49.6541C179.37 49.355 179.548 49.0826 179.772 48.8518C179.997 48.6218 180.263 48.4372 180.557 48.3081C180.863 48.1763 181.193 48.1084 181.526 48.1084C181.859 48.1084 182.189 48.1763 182.495 48.3081C182.786 48.4388 183.049 48.6232 183.272 48.8518C183.499 49.083 183.681 49.3552 183.808 49.6541C183.936 49.9504 184.001 50.2702 184 50.5933V50.6807L183.974 50.6769ZM183.325 50.3651C183.272 49.958 183.089 49.5791 182.804 49.2853C182.635 49.1184 182.437 48.9832 182.22 48.8861C181.993 48.7906 181.749 48.7427 181.503 48.7454C181.277 48.7454 181.052 48.7866 180.84 48.867C180.638 48.9471 180.452 49.0616 180.289 49.2054C180.124 49.35 179.987 49.5241 179.885 49.7188C179.777 49.9197 179.705 50.1386 179.674 50.3651H183.325Z" fill="url(#paint21_linear_173_1536)"/>
<defs>
<linearGradient id="paint0_linear_173_1536" x1="0" y1="29.4981" x2="58.5211" y2="29.4981" gradientUnits="userSpaceOnUse">
<stop stop-color="#00B1EB"/>
<stop offset="1" stop-color="#5A328A"/>
</linearGradient>
<linearGradient id="paint1_linear_173_1536" x1="51.1895" y1="31.5552" x2="37.4479" y2="29.2798" gradientUnits="userSpaceOnUse">
<stop stop-color="white"/>
<stop offset="1" stop-color="#B2B2B2"/>
</linearGradient>
<linearGradient id="paint2_linear_173_1536" x1="40.5352" y1="24.4182" x2="26.8456" y2="30.8792" gradientUnits="userSpaceOnUse">
<stop stop-color="white"/>
<stop offset="1" stop-color="#C6C6C6"/>
</linearGradient>
<linearGradient id="paint3_linear_173_1536" x1="28.6967" y1="30.5248" x2="11.4576" y2="30.6557" gradientUnits="userSpaceOnUse">
<stop stop-color="white"/>
<stop offset="0.45" stop-color="#E8E8E8"/>
<stop offset="1" stop-color="#C6C6C6"/>
</linearGradient>
<linearGradient id="paint4_linear_173_1536" x1="171.75" y1="25.7565" x2="158.713" y2="27.4478" gradientUnits="userSpaceOnUse">
<stop stop-color="#00B1EB"/>
<stop offset="1" stop-color="#5A328A"/>
</linearGradient>
<linearGradient id="paint5_linear_173_1536" x1="107.685" y1="61.9392" x2="105.873" y2="48.5591" gradientUnits="userSpaceOnUse">
<stop stop-color="#5A328A"/>
<stop offset="1" stop-color="#009CE1"/>
</linearGradient>
<linearGradient id="paint6_linear_173_1536" x1="143.088" y1="57.7795" x2="141.21" y2="43.9243" gradientUnits="userSpaceOnUse">
<stop stop-color="#5A328A"/>
<stop offset="1" stop-color="#009CE1"/>
</linearGradient>
<linearGradient id="paint7_linear_173_1536" x1="159.969" y1="55.1179" x2="158.213" y2="42.1635" gradientUnits="userSpaceOnUse">
<stop stop-color="#5A328A"/>
<stop offset="1" stop-color="#009CE1"/>
</linearGradient>
<linearGradient id="paint8_linear_173_1536" x1="113.444" y1="61.1408" x2="111.651" y2="47.9089" gradientUnits="userSpaceOnUse">
<stop stop-color="#5A328A"/>
<stop offset="1" stop-color="#009CE1"/>
</linearGradient>
<linearGradient id="paint9_linear_173_1536" x1="117.268" y1="61.1635" x2="115.406" y2="47.4032" gradientUnits="userSpaceOnUse">
<stop stop-color="#5A328A"/>
<stop offset="1" stop-color="#009CE1"/>
</linearGradient>
<linearGradient id="paint10_linear_173_1536" x1="119.132" y1="60.9963" x2="117.254" y2="47.1372" gradientUnits="userSpaceOnUse">
<stop stop-color="#5A328A"/>
<stop offset="1" stop-color="#009CE1"/>
</linearGradient>
<linearGradient id="paint11_linear_173_1536" x1="122.963" y1="59.4107" x2="121.292" y2="47.0835" gradientUnits="userSpaceOnUse">
<stop stop-color="#5A328A"/>
<stop offset="1" stop-color="#009CE1"/>
</linearGradient>
<linearGradient id="paint12_linear_173_1536" x1="127.003" y1="59.8707" x2="125.136" y2="46.1105" gradientUnits="userSpaceOnUse">
<stop stop-color="#5A328A"/>
<stop offset="1" stop-color="#009CE1"/>
</linearGradient>
<linearGradient id="paint13_linear_173_1536" x1="130.378" y1="59.2091" x2="128.584" y2="45.9772" gradientUnits="userSpaceOnUse">
<stop stop-color="#5A328A"/>
<stop offset="1" stop-color="#009CE1"/>
</linearGradient>
<linearGradient id="paint14_linear_173_1536" x1="136.103" y1="58.2357" x2="134.359" y2="45.3535" gradientUnits="userSpaceOnUse">
<stop stop-color="#5A328A"/>
<stop offset="1" stop-color="#009CE1"/>
</linearGradient>
<linearGradient id="paint15_linear_173_1536" x1="147.319" y1="57.2244" x2="145.438" y2="43.3539" gradientUnits="userSpaceOnUse">
<stop stop-color="#5A328A"/>
<stop offset="1" stop-color="#009CE1"/>
</linearGradient>
<linearGradient id="paint16_linear_173_1536" x1="153.007" y1="55.8935" x2="151.313" y2="43.3876" gradientUnits="userSpaceOnUse">
<stop stop-color="#5A328A"/>
<stop offset="1" stop-color="#009CE1"/>
</linearGradient>
<linearGradient id="paint17_linear_173_1536" x1="164.423" y1="54.6237" x2="162.629" y2="41.3918" gradientUnits="userSpaceOnUse">
<stop stop-color="#5A328A"/>
<stop offset="1" stop-color="#009CE1"/>
</linearGradient>
<linearGradient id="paint18_linear_173_1536" x1="168.911" y1="54.3233" x2="167.033" y2="40.468" gradientUnits="userSpaceOnUse">
<stop stop-color="#5A328A"/>
<stop offset="1" stop-color="#009CE1"/>
</linearGradient>
<linearGradient id="paint19_linear_173_1536" x1="173.327" y1="53.4868" x2="171.533" y2="40.2549" gradientUnits="userSpaceOnUse">
<stop stop-color="#5A328A"/>
<stop offset="1" stop-color="#009CE1"/>
</linearGradient>
<linearGradient id="paint20_linear_173_1536" x1="177.653" y1="52.9125" x2="175.955" y2="40.38" gradientUnits="userSpaceOnUse">
<stop stop-color="#5A328A"/>
<stop offset="1" stop-color="#009CE1"/>
</linearGradient>
<linearGradient id="paint21_linear_173_1536" x1="181.741" y1="52.426" x2="180.047" y2="39.9239" gradientUnits="userSpaceOnUse">
<stop stop-color="#5A328A"/>
<stop offset="1" stop-color="#009CE1"/>
</linearGradient>
</defs>
</svg>
