<svg width="816" height="286" viewBox="0 0 816 286" fill="none" xmlns="http://www.w3.org/2000/svg">
<g id="introduction-illustration" filter="url(#filter0_d_158_1186)">
<g id="color">
<circle id="Ellipse 10" cx="46.9777" cy="140" r="42.9777" fill="#EAEAF6"/>
<circle id="circlesDsa1" cx="45.9782" cy="141" r="31.9834" fill="#2525D0"/>
</g>
<g id="tokens">
<path id="squaresDsa3" d="M195.148 39.8593H251.694L247.971 99.9437H190.188L195.148 39.8593Z" fill="#EAEAF6"/>
<path id="Rectangle 32" d="M273.107 39.8593H329.654L325.931 99.9437H268.147L273.107 39.8593Z" fill="#EAEAF6"/>
<path id="Rectangle 33" d="M195.148 110.932H251.694L247.971 171.017H190.188L195.148 110.932Z" fill="#EAEAF6"/>
<path id="squaresDsa2" d="M195.148 180.056H251.694L247.971 240.141H190.188L195.148 180.056Z" fill="#2929A3"/>
<path id="squaresDsa1" d="M273.107 109.958H329.654L325.931 170.042H268.147L273.107 109.958Z" fill="#2929A3"/>
<path id="Rectangle 36" d="M273.162 180.056H329.708L325.985 240.141H268.202L273.162 180.056Z" fill="#EAEAF6"/>
</g>
<path id="circlesDsa2" d="M430.81 139.165C431.257 128.082 440.373 119.327 451.466 119.327H513.167C525.096 119.327 534.55 129.395 533.799 141.3C533.113 152.191 524.08 160.673 513.167 160.673H451.466C439.721 160.673 430.335 150.901 430.81 139.165Z" fill="#2525D0"/>
<g id="componenet">
<path id="Rectangle 26" d="M651.82 10.3125C652.079 6.09492 655.575 2.80713 659.801 2.80713H803.528C808.126 2.80713 811.776 6.67491 811.511 11.2648L796.563 269.659C796.319 273.888 792.817 277.193 788.581 277.193H643.919C639.31 277.193 635.655 273.307 635.938 268.706L651.82 10.3125Z" fill="#EAEAF6"/>
<path id="Rectangle 17" d="M666.662 32.1091C666.964 31.347 667.701 30.8466 668.52 30.8466H759.456C760.868 30.8466 761.834 32.2697 761.314 33.5819L758.931 39.5981C758.629 40.3602 757.892 40.8606 757.072 40.8606H666.137C664.725 40.8606 663.758 39.4374 664.278 38.1253L666.662 32.1091Z" fill="white"/>
<path id="Rectangle 19" d="M667.718 59.9807C668.059 59.3092 668.748 58.886 669.501 58.886H786.92C788.411 58.886 789.377 60.4594 788.703 61.7892L785.652 67.8053C785.311 68.4769 784.622 68.9001 783.869 68.9001H666.45C664.959 68.9001 663.992 67.3266 664.667 65.9969L667.718 59.9807Z" fill="white"/>
<path id="framesDsa2" d="M665.014 82.7367C665.107 81.7063 665.971 80.917 667.005 80.917H785.892C787.107 80.917 788.041 81.9913 787.872 83.1941L785.338 101.227C785.199 102.214 784.355 102.948 783.359 102.948H665.381C664.207 102.948 663.285 101.94 663.39 100.77L665.014 82.7367Z" fill="#2929A3"/>
<path id="Rectangle 22" d="M665.014 112.779C665.107 111.748 665.971 110.959 667.005 110.959H785.892C787.107 110.959 788.041 112.033 787.872 113.236L785.338 131.269C785.199 132.256 784.355 132.99 783.359 132.99H665.381C664.207 132.99 663.285 131.982 663.39 130.812L665.014 112.779Z" fill="white"/>
<path id="Rectangle 23" d="M665.014 142.821C665.107 141.791 665.971 141.001 667.005 141.001H785.892C787.107 141.001 788.041 142.076 787.872 143.278L785.338 161.311C785.199 162.298 784.355 163.032 783.359 163.032H665.381C664.207 163.032 663.285 162.024 663.39 160.854L665.014 142.821Z" fill="white"/>
<path id="Rectangle 24" d="M665.014 172.863C665.107 171.833 665.971 171.044 667.005 171.044H785.892C787.107 171.044 788.041 172.118 787.872 173.321L785.338 191.354C785.199 192.341 784.355 193.075 783.359 193.075H665.381C664.207 193.075 663.285 192.066 663.39 190.896L665.014 172.863Z" fill="white"/>
<path id="framesDsa1" d="M675.802 235.459C676.165 226.327 683.674 219.111 692.813 219.111H742.301C752.118 219.111 759.9 227.392 759.292 237.189C758.735 246.165 751.293 253.159 742.301 253.159H692.813C683.145 253.159 675.418 245.118 675.802 235.459Z" fill="#2525D0"/>
<path id="Rectangle 20" d="M667.718 45.9611C668.059 45.2895 668.748 44.8663 669.501 44.8663H786.92C788.411 44.8663 789.377 46.4398 788.703 47.7695L785.652 53.7857C785.311 54.4572 784.622 54.8804 783.869 54.8804H666.45C664.959 54.8804 663.992 53.307 664.667 51.9772L667.718 45.9611Z" fill="white"/>
</g>
</g>
<defs>
<filter id="filter0_d_158_1186" x="0" y="0" width="816" height="288" filterUnits="userSpaceOnUse" color-interpolation-filters="sRGB">
<feFlood flood-opacity="0" result="BackgroundImageFix"/>
<feColorMatrix in="SourceAlpha" type="matrix" values="0 0 0 0 0 0 0 0 0 0 0 0 0 0 0 0 0 0 127 0" result="hardAlpha"/>
<feOffset dy="4"/>
<feGaussianBlur stdDeviation="2"/>
<feComposite in2="hardAlpha" operator="out"/>
<feColorMatrix type="matrix" values="0 0 0 0 0 0 0 0 0 0 0 0 0 0 0 0 0 0 0.25 0"/>
<feBlend mode="normal" in2="BackgroundImageFix" result="effect1_dropShadow_158_1186"/>
<feBlend mode="normal" in="SourceGraphic" in2="effect1_dropShadow_158_1186" result="shape"/>
</filter>
</defs>
</svg>
